<svg width="1000" height="248" viewBox="0 0 1000 248" fill="none" xmlns="http://www.w3.org/2000/svg">
<path d="M289.486 64.6253H342.669V200H286.586L232.629 126.511V200H179.446V64.6253H235.337L289.486 138.308V64.6253ZM493.095 165.189V200H350.372V64.6253H491.355V99.6293H403.555V114.907H485.94V147.977H403.555V165.189H493.095ZM603.448 64.6253H656.631V144.303C656.631 197.486 619.693 202.901 577.727 202.901C535.955 202.901 498.823 197.486 498.823 144.303V64.6253H552.006V141.789C552.006 161.515 559.548 168.284 577.727 168.284C596.1 168.284 603.448 161.515 603.448 141.789V64.6253ZM768.699 200L733.695 151.072L717.644 165.576V200H664.461V64.6253H717.644V107.558L762.704 64.6253H828.651L769.473 118.582L831.358 200H768.699ZM903.734 61.9178C949.568 61.9178 995.596 79.5165 995.596 132.313C995.596 185.302 949.568 202.901 903.734 202.901C857.9 202.901 812.066 185.302 812.066 132.313C812.066 79.5165 857.9 61.9178 903.734 61.9178ZM903.734 168.284C928.488 168.284 941.639 154.166 941.639 132.313C941.639 110.653 928.488 96.535 903.734 96.535C878.98 96.535 865.829 110.653 865.829 132.313C865.829 154.166 878.98 168.284 903.734 168.284Z" fill="black"/>
<rect y="58.6359" width="145.235" height="145.295" rx="18.743" fill="#EA261F"/>
<circle cx="46.1758" cy="113.407" r="10.2876" fill="#FFFF0A"/>
<path d="M57.4597 162.122C48.4916 162.366 40.656 162.821 34.7839 163.416L37.5544 128.973C41.8838 127.735 47.4261 126.815 54.5222 126.274L57.4597 162.122ZM90.6365 126.517C98.0133 127.228 103.549 128.395 107.706 129.928L110.45 163.415C104.577 162.82 96.7404 162.366 87.7712 162.122L90.6365 126.517ZM71.1619 125.714C74.6629 125.714 77.9142 125.774 80.9333 125.889L83.8953 162.031C80.2744 161.96 76.4987 161.922 72.6179 161.922C68.736 161.922 64.9594 161.96 61.3376 162.031L64.2527 125.798C66.4402 125.743 68.7413 125.714 71.1619 125.714Z" fill="#FFFF0A"/>
<circle cx="99.0606" cy="113.407" r="10.2876" fill="#FFFF0A"/>
<circle cx="72.6177" cy="109.443" r="10.2876" fill="#FFFF0A"/>
</svg>
